<?xml version="1.0" encoding="utf-8"?>
<!-- Generator: Adobe Illustrator 15.1.0, SVG Export Plug-In . SVG Version: 6.00 Build 0)  -->
<!DOCTYPE svg PUBLIC "-//W3C//DTD SVG 1.1//EN" "http://www.w3.org/Graphics/SVG/1.1/DTD/svg11.dtd">
<svg version="1.1" id="Layer_1" xmlns="http://www.w3.org/2000/svg" xmlns:xlink="http://www.w3.org/1999/xlink" x="0px" y="0px"
	 width="792px" height="612px" viewBox="0 0 792 612" enable-background="new 0 0 792 612" xml:space="preserve">
<path fill-rule="evenodd" clip-rule="evenodd" stroke="#000000" stroke-width="3" stroke-linecap="round" stroke-linejoin="round" stroke-miterlimit="22.9256" d="
	M355.833,359.481c-7.457,10.281-17.438,25.781-23.262,38.656s-7.487,23.125-5.823,33.25c1.664,10.125,6.655,20.125,12.715,27.875
	c6.061,7.75,13.191,13.25,21.51,17.5c8.318,4.25,17.826,7.25,23.411,10.75c5.585,3.5,7.249,7.5,5.11,9.5
	c-2.139,2-8.081,2-12.657,2.086c-4.577,0.086-7.788,0.258-14.799,0.633c-7.012,0.375-17.824,0.953-26.319,0.367
	s-14.675-2.336-18.122-6.711c-3.446-4.375-4.159-11.375-7.011-18.625c-2.853-7.25-7.843-14.75-12.597-22.625
	c-4.753-7.875-9.269-16.125-9.626-24.25c-0.356-8.125,3.447-16.125,4.278-26.501c0.832-10.374-1.307-23.124-1.901-32.624
	s0.356-15.75-2.496-21.75c-19.87-41.8-40.785-24.15-74.424-19.75c-16.443,2.151-73.922,13.358-117.241,9.049
	c-33.979-3.381-56.94-18.907-60.033-38.424c-0.732-4.622,6.893,1.125,21.391,4.75c14.498,3.625,35.889,5.125,68.451-9
	c32.562-14.125,76.293-43.875,106.954-62.125s48.248-25,63.222-32s27.333-14.25,43.495-17.125c16.162-2.875,36.126-1.375,56.091-5
	c19.964-3.625,39.93-12.375,62.865-14.5c22.937-2.125,48.843,2.375,66.55-1.125s27.214-15,39.454-24.625s27.214-17.375,42.9-21.375
	s32.087-4.25,44.921-0.125s22.104,12.625,29.591,18.75c7.487,6.125,13.191,9.875,22.817,13.25
	c9.626,3.375,23.173,6.375,32.918,12.75c9.745,6.375,15.687,16.125,17.588,24.5s-0.237,15.375-1.901,18.875
	c-2.233,4.699-4.445,2.355-6.573,4.424c-0.547,0.531-1.238,1.681-4.72,5.113c-3.482,3.432-9.755,9.148-12.659,10.414
	c-2.904,1.266-2.44-1.918-2.016-5.486c0.426-3.568,0.812-7.522-0.696-7.014c-1.507,0.508-4.909,5.477-7.197,8.586
	s-3.461,4.359-4.249,3.016c-0.787-1.344-1.188-5.281-1.484-8.352c-0.297-3.071-0.49-5.274-1.695-4.596
	c-1.204,0.677-3.422,4.237-5.065,6.704s-2.713,3.842-3.92,2.779s-2.552-4.564-3.313-6.813c-0.762-2.248-0.813-3.334-1.349-3.946
	c-2.274-2.598-28.246-12.438-31.22-13.079c-4.635-1-0.832,5,3.684,11.5c2.016,2.901,12.786,18.121,15.347,18.174
	c0.776,0.016,1.835-0.464,3.497-1.595c1.662-1.132,3.928-2.915,4.571-1.151s-0.337,7.076,0.19,9.389
	c0.527,2.312,2.563,1.625,5.16,0.293c2.598-1.332,5.758-3.308,7.177-3.214s1.096,2.257,1.038,4.995
	c-0.058,2.738,0.15,6.051,0.923,7.379c0.772,1.328,2.109,0.672,4.085-0.86c1.976-1.531,4.591-3.938,5.838-4.391
	c1.248-0.453,1.13,1.046,0.825,3.463s-0.794,5.75-0.919,7.686c-0.243,3.79,1.951,5.494-0.078,9.957
	c-1.308,2.875-4.159,4.625-8.438,5.5c-4.278,0.875-9.982,0.875-21.034-2.5s-27.452-10.125-37.672-14.125s-14.261-5.25-22.579-5.25
	s-20.916,1.25-29.472,0.75c-8.557-0.5-13.072-2.75-20.916,0.75c-7.843,3.5-19.014,12.75-27.333,22.375
	c-6.337,7.332-14.053,14.676-8.465,24.827c2.401,4.362,7.393,9.737,10.779,13.362c4.169,4.462,8.791,12.335,5.952,18.906
	c-2.384,5.516-7.927,10.242-7.813,0.782c0.029-2.438,0.053-4.375-0.884-4.187c-0.05,0.01-7.845,6.642-7.749,0.779
	c0.078-4.808,0.754-10.57-2.52-14.531c-2.377-2.875-5.467-5.75-8.688-6.651c-5.813-1.626-19.103,4.471-19.47,8.576
	c-0.145,1.62,1.885,3.598,4.444,6.211c2.56,2.614,5.649,5.864,8.68,9.802c6.374,8.282,17.415,21.711,6.465,36.5
	c-2.563,3.463-10.327,3.938-11.323,3.206s0.934-4.57,2.27-7.351c1.338-2.781,2.081-4.505,0.521-3.836
	c-1.559,0.669-5.421,3.731-7.887,4.825c-9.893,4.389-0.484-11.909-2.227-17.407c-1.308-4.125-3.803-8.125-6.239-11.813
	s-4.813-7.063-7.497-9.227c-7.348-5.924-46.407,1.239-54.237,7.319c-5.11,3.97-7.727,11.408-10.224,21.314
	c-2.496,9.907-4.873,22.282-7.488,34.22c-2.614,11.938-5.466,23.438-5.585,32.188s2.496,14.75,6.091,21.844
	s8.17,15.282,12.715,21.126c4.546,5.844,9.062,9.344,15.717,12.469c6.654,3.125,15.449,5.875,20.202,9.125
	c4.754,3.25,5.467,7,2.258,8.875c-3.208,1.875-10.339,1.875-22.223,1.875s-28.521,0-38.146-1.375s-12.24-4.125-13.429-9.25
	s-0.951-12.625-2.912-21.281c-1.962-8.655-6.124-18.467-9.244-23.936s-5.197-6.595-6.236-10.282
	c-1.039-3.688-1.039-9.938-3.208-20.876c-2.168-10.938-6.506-26.563-8.675-37.626c-2.168-11.063-2.168-17.563-4.634-18.281
	C368.219,344.139,363.289,349.2,355.833,359.481z"/>
</svg>
