<?xml version="1.0" encoding="utf-8"?>
<!-- Generator: Adobe Illustrator 15.1.0, SVG Export Plug-In . SVG Version: 6.00 Build 0)  -->
<!DOCTYPE svg PUBLIC "-//W3C//DTD SVG 1.1//EN" "http://www.w3.org/Graphics/SVG/1.1/DTD/svg11.dtd">
<svg version="1.1" id="Layer_1" xmlns="http://www.w3.org/2000/svg" xmlns:xlink="http://www.w3.org/1999/xlink" x="0px" y="0px"
	 width="792px" height="612px" viewBox="0 0 792 612" enable-background="new 0 0 792 612" xml:space="preserve">
<path fill-rule="evenodd" clip-rule="evenodd" stroke="#000000" stroke-width="3" stroke-linecap="round" stroke-linejoin="round" stroke-miterlimit="22.9256" d="
	M245.475,354.211c0.36,0.463,0.717,0.91,1.069,1.339c3.666,4.456,6.972,7.044,8.769,11.644c1.796,4.6,2.084,11.212,1.94,17.608
	c-0.144,6.396-0.719,12.578-1.94,17.681c-1.222,5.103-3.091,9.128-5.606,12.506c-2.516,3.378-5.678,6.109-6.972,8.48
	c-1.293,2.372-0.719,4.385,2.803,6.037c3.522,1.653,9.99,2.947,15.956,2.804c5.965-0.144,11.427-1.726,14.374-3.45
	s3.378-3.594,4.457-6.469c1.078-2.874,2.802-6.756,3.881-11.571c1.078-4.815,1.509-10.564,3.378-16.314s5.175-11.5,6.181-15.74
	c1.006-4.24-0.288-6.972,0.215-8.553s2.803-2.013,6.54-0.288c3.737,1.726,8.912,5.606,10.925,10.565
	c2.012,4.96,0.862,10.997-0.431,16.746c-1.294,5.75-2.731,11.212-4.097,16.027s-2.659,8.984-5.678,12.219s-7.763,5.534-10.422,8.193
	s-3.234,5.678-0.359,8.409s9.199,5.175,16.89,5.175s16.747-2.443,21.418-4.528c4.671-2.084,4.958-3.809,4.6-5.534
	c-0.36-1.725-1.366-3.449,0.144-7.546c1.509-4.097,5.534-10.565,9.343-18.687c3.809-8.122,7.403-17.896,8.625-24.94
	c1.222-7.043,0.072-11.355-1.868-15.309c-1.941-3.953-4.672-7.547-1.15-8.193s13.296,1.653,26.521,1.365
	c13.224-0.287,29.898-3.162,39.673-5.246s12.649-3.378,15.524-0.216c2.875,3.163,5.75,10.781,8.409,18.472
	s5.103,15.452,6.324,21.202c1.223,5.749,1.223,9.487-1.077,14.59s-6.9,11.571-10.781,15.955c-3.881,4.385-7.043,6.685-8.48,8.697
	c-1.438,2.012-1.15,3.736,1.365,5.318c2.516,1.581,7.26,3.019,14.375,3.377c7.115,0.36,16.602-0.358,22.998-1.438
	c6.396-1.077,9.703-2.515,11.284-4.312s1.438-3.953,2.228-6.396c0.791-2.443,2.517-5.175,4.169-9.703
	c1.653-4.527,3.234-10.853,2.229-16.674s-4.6-11.14-6.685-17.249c-2.084-6.109-2.659-13.01-2.731-17.394
	c-0.071-4.384,0.36-6.253,3.738-4.527c3.378,1.725,9.702,7.043,15.955,12.793s12.434,11.931,14.662,17.393
	c2.228,5.463,0.503,10.206-1.726,14.087c-2.228,3.882-4.959,6.9-7.331,9.56c-2.371,2.659-4.384,4.959-1.149,7.115
	s11.715,4.168,19.908,4.384s16.1-1.365,19.693-3.594c3.594-2.228,2.875-5.103,3.163-8.912c0.287-3.809,1.58-8.553,2.945-13.871
	c1.366-5.318,2.804-11.212,0.863-15.955c-1.94-4.744-7.259-8.338-12.578-14.375c-5.318-6.037-10.637-14.518-13.225-20.914
	c-0.414-1.024-0.758-1.995-1.033-2.922c-0.024-1.911-0.218-3.333-0.218-4.753c0-2.552,0.626-5.093,6.377-6.172
	c5.752-1.079,16.629-0.695,29.398,3.378s27.432,11.835,45.831,21.609c18.399,9.775,40.535,21.562,66.696,24.58
	c26.162,3.02,56.349-2.73,73.31-7.618c16.962-4.887,20.699-8.912,14.806-9.631s-21.418,1.869-41.398-1.294
	c-19.979-3.162-44.417-12.074-70.722-39.529c-26.305-27.455-54.479-73.453-79.922-104.358
	c-25.442-30.905-48.153-46.716-82.077-55.485s-79.06-10.493-117.439-1.15s-70.003,29.755-89.258,39.42
	c-19.255,9.665-26.143,8.584-29.75,7.585c-3.608-0.999-3.937-1.916-5.093-5.112c-0.593-1.639-1.404-3.878-2.69-6.55
	c-2.677-6.113-5.437-11-8.691-15.345c-4.684-6.256-10.394-11.392-16.167-14.963s-11.611-5.578-17.586-6.364
	s-12.088-0.354-17.711,1.707c-5.623,2.061-10.756,5.749-14.129,10.758c-3.373,5.01-4.986,11.341-6.205,18.166
	c-1.22,6.825-2.045,14.144-4.013,18.638c-1.967,4.495-5.075,6.165-8.87,5.961c-3.795-0.204-8.278-2.282-13.369-6.422
	c-5.092-4.14-10.793-10.342-16.474-17.721c-5.681-7.379-11.34-15.936-15.866-23.1c-4.525-7.165-7.917-12.938-9.53-13.569
	s-1.448,3.879-0.318,10.773c1.131,6.894,3.229,16.17,7.871,25.538c4.642,9.367,11.829,18.826,17.907,25.66
	c6.079,6.834,11.051,11.045,10.716,12.271c-0.334,1.225-5.976-0.534-14.116-4.036c-8.14-3.501-18.778-8.745-28.908-15.503
	c-10.13-6.759-19.752-15.032-27.381-22.069c-7.628-7.037-13.262-12.838-15.302-13.181c-2.039-0.343-0.484,4.773,3.458,12.63
	c3.942,7.857,10.272,18.454,20.921,28.078c10.65,9.625,25.621,18.276,35.236,23.629c9.615,5.353,13.875,7.405,14.759,9.527
	c0.884,2.121-1.609,4.311-3.66,7.958c-2.051,3.648-3.659,8.754-6.03,12.254c-2.371,3.499-5.504,5.392-9.868,6.247
	c-4.364,0.855-9.958,0.673-15.737,0.132c-5.779-0.54-11.742-1.437-16.557-3.552c-4.815-2.116-8.481-5.45-9.32-4.982
	c-0.838,0.467,1.15,4.734,3.434,9.371s4.864,9.646,7.446,12.632c2.583,2.987,5.169,3.953,5.671,5.47
	c0.503,1.516-1.078,3.583-3.117,6.723c-2.038,3.139-4.535,7.35-6.021,11.562s-1.961,8.426-0.652,13.341
	c1.309,4.915,4.402,10.532,8.434,16.205c4.031,5.671,9,11.397,11.226,11.742c2.226,0.346,1.709-4.691,2.555-9.2
	c0.846-4.51,3.054-8.49,6.723-11.313c3.669-2.824,8.798-4.491,11.656-3.944c2.858,0.547,3.444,3.309,2.799,6.043
	c-0.646,2.734-2.523,5.442-4.941,6.967c-2.418,1.523-5.376,1.863-4.863,2.964s4.498,2.96,8.977,3.282
	c4.48,0.321,9.454-0.896,13.707-3.214s7.783-5.738,12.556-8.231s10.79-4.061,18.396-5.785s16.803-3.606,24.318-3.783
	C191.716,337.469,228.056,337.859,245.475,354.211z"/>
</svg>
